<svg width="120" height="120" viewBox="0 0 120 120" fill="none" xmlns="http://www.w3.org/2000/svg">
  <!-- Background Circle -->
  <circle cx="60" cy="60" r="58" fill="url(#gradient-bg)" stroke="#4CAF50" stroke-width="2"/>

  <!-- Frontend Icon: Browser Window -->
  <rect x="15" y="20" width="50" height="30" rx="5" fill="#20232A" />
  <rect x="20" y="25" width="15" height="5" rx="2" fill="#61DAFB" />
  <rect x="40" y="25" width="20" height="5" rx="2" fill="#444B56" />
  <rect x="20" y="35" width="40" height="3" fill="#61DAFB" />
  <rect x="20" y="42" width="25" height="3" fill="#444B56" />

  <!-- Backend Icon: Server -->
  <rect x="65" y="70" width="40" height="15" rx="3" fill="#444B56" />
  <circle cx="75" cy="78" r="2" fill="#4CAF50" />
  <circle cx="85" cy="78" r="2" fill="#4CAF50" />
  <circle cx="95" cy="78" r="2" fill="#4CAF50" />

  <!-- Database Icon -->
  <ellipse cx="85" cy="50" rx="20" ry="8" fill="#61DAFB" />
  <rect x="65" y="50" width="40" height="20" rx="5" fill="#61DAFB" />
  <ellipse cx="85" cy="70" rx="20" ry="8" fill="#61DAFB" />

  <!-- Integration Lines -->
  <line x1="40" y1="50" x2="75" y2="65" stroke="#FFD700" stroke-width="2" stroke-dasharray="4 2" />
  <line x1="40" y1="50" x2="85" y2="50" stroke="#FFD700" stroke-width="2" stroke-dasharray="4 2" />
  <line x1="40" y1="50" x2="85" y2="85" stroke="#FFD700" stroke-width="2" stroke-dasharray="4 2" />

  <!-- Gradient Definition -->
  <defs>
    <linearGradient id="gradient-bg" x1="0" y1="0" x2="120" y2="120" gradientUnits="userSpaceOnUse">
      <stop stop-color="#20232A" />
      <stop offset="1" stop-color="#282C34" />
    </linearGradient>
  </defs>
</svg>
