<svg
  xmlns="http://www.w3.org/2000/svg"
  viewBox="0 0 24 24"
  width="128"
  height="128"
  fill="none"
>
  <path
    d="M14.83 9.17a1 1 0 0 0-1.42 1.42L16.09 13l-2.68 2.68a1 1 0 1 0 1.42 1.42l3.39-3.39a1 1 0 0 0 0-1.42l-3.39-3.39Z"
    fill="white"
  />
  <path
    d="M10.91 19.78a1 1 0 0 1-1.42-1.42l4.25-4.24a1 1 0 0 0 0-1.42L9.49 8.46a1 1 0 1 1 1.42-1.42l4.24 4.24a3 3 0 0 1 0 4.24l-4.24 4.24Z"
   fill="white"
  />
  <path
    d="M12 22.92a10.92 10.92 0 1 1 7.72-3.2 1 1 0 0 1-1.41-1.42 8.92 8.92 0 1 0-6.31 2.62 8.91 8.91 0 0 0 6.31-2.62 1 1 0 1 1 1.41 1.42A10.92 10.92 0 0 1 12 22.92Z"
    fill="white"
  />
</svg>
